<?xml version="1.0" encoding="utf-8"?>
<!-- Generator: Adobe Illustrator 19.1.0, SVG Export Plug-In . SVG Version: 6.00 Build 0)  -->
<svg version="1.1" xmlns="http://www.w3.org/2000/svg" xmlns:xlink="http://www.w3.org/1999/xlink" x="0px" y="0px"
	 viewBox="0 0 300 300" style="enable-background:new 0 0 300 300;" xml:space="preserve">
<style type="text/css">
	.st0{fill:#343131;}
	.st1{fill:#EEEEEE;}
</style>
<g id="complete">
	<g>
		<path class="st0" d="M31.8,13.8L19.7,25.9l-2.3,2.3c-0.3,0.3-0.7,0.5-1.1,0.5s-0.8-0.2-1.1-0.5l-2.3-2.3l-6.1-6.1
			c-0.3-0.3-0.5-0.7-0.5-1.1s0.2-0.8,0.5-1.1l2.3-2.3c0.3-0.3,0.7-0.5,1.1-0.5s0.8,0.2,1.1,0.5l4.9,4.9l11-11
			c0.3-0.3,0.7-0.5,1.1-0.5s0.8,0.2,1.1,0.5l2.3,2.3c0.3,0.3,0.5,0.7,0.5,1.1S32.1,13.5,31.8,13.8z"/>
	</g>
</g>
<g id="incomplete">
	<g>
		<path class="st1" d="M66.8,13.8L54.7,25.9l-2.3,2.3c-0.3,0.3-0.7,0.5-1.1,0.5c-0.4,0-0.8-0.2-1.1-0.5l-2.3-2.3l-6.1-6.1
			c-0.3-0.3-0.5-0.7-0.5-1.1s0.2-0.8,0.5-1.1l2.3-2.3c0.3-0.3,0.7-0.5,1.1-0.5c0.4,0,0.8,0.2,1.1,0.5l4.9,4.9l11-11
			c0.3-0.3,0.7-0.5,1.1-0.5c0.4,0,0.8,0.2,1.1,0.5l2.3,2.3c0.3,0.3,0.5,0.7,0.5,1.1S67.2,13.5,66.8,13.8z"/>
	</g>
</g>
</svg>
